<?xml version="1.0" encoding="utf-8"?>
<!-- Generator: Adobe Illustrator 16.0.0, SVG Export Plug-In . SVG Version: 6.00 Build 0)  -->
<!DOCTYPE svg PUBLIC "-//W3C//DTD SVG 1.1//EN" "http://www.w3.org/Graphics/SVG/1.1/DTD/svg11.dtd">
<svg version="1.1" id="Layer_1" xmlns="http://www.w3.org/2000/svg" xmlns:xlink="http://www.w3.org/1999/xlink" x="0px" y="0px"
	 width="150px" height="150px" viewBox="0 0 150 150" style="enable-background:new 0 0 150 150;" xml:space="preserve">
<path style="fill:#5A5A5B;" d="M65.625,7.031v14.063v4.688v42.188h4.688V25.781h75v89.063H112.5v4.688H150v-93.75v-4.688V7.031
	H65.625z M70.313,21.094v-9.375h75v9.375H70.313z M11.719,21.094c3.877,0,7.031-3.154,7.031-7.031c0-3.876-3.154-7.031-7.031-7.031
	s-7.031,3.155-7.031,7.031C4.688,17.939,7.842,21.094,11.719,21.094z M11.719,11.719c1.291,0,2.344,1.052,2.344,2.344
	s-1.053,2.344-2.344,2.344s-2.344-1.052-2.344-2.344S10.428,11.719,11.719,11.719z M28.125,21.094h-4.688V7.031h4.688V21.094z
	 M37.5,21.094h-4.688V7.031H37.5V21.094z M9.375,75h4.688v14.063H9.375V75z M4.688,89.063H0V75h4.688V89.063z M142.969,128.906
	c-3.877,0-7.031,3.155-7.031,7.031c0,3.877,3.154,7.031,7.031,7.031s7.031-3.154,7.031-7.031
	C150,132.062,146.846,128.906,142.969,128.906z M142.969,138.281c-1.294,0-2.344-1.05-2.344-2.344s1.05-2.344,2.344-2.344
	s2.344,1.05,2.344,2.344S144.263,138.281,142.969,138.281z M126.563,128.906h4.688v14.063h-4.688V128.906z M117.188,128.906h4.688
	v14.063h-4.688V128.906z M14.063,114.844H9.375v-4.688h4.688V114.844z M23.438,114.844H18.75v-4.688h4.688V114.844z M32.813,114.844
	h-4.688v-4.688h4.688V114.844z M42.188,114.844H37.5v-4.688h4.688V114.844z M51.563,114.844h-4.688v-4.688h4.688V114.844z
	 M60.938,114.844H56.25v-4.688h4.688V114.844z M70.313,114.844h-4.688v-4.688h4.688V114.844z M79.688,114.844H75v-4.688h4.688
	V114.844z M89.063,114.844h-4.688v-4.688h4.688V114.844z M98.438,114.844H93.75v-4.688h4.688V114.844z M14.063,119.531h4.688v4.688
	h-4.688V119.531z M23.438,119.531h4.688v4.688h-4.688V119.531z M32.813,119.531H37.5v4.688h-4.688V119.531z M42.188,119.531h4.688
	v4.688h-4.688V119.531z M51.563,119.531h4.688v4.688h-4.688V119.531z M60.938,119.531h4.688v4.688h-4.688V119.531z M70.313,119.531
	H75v4.688h-4.688V119.531z M79.688,119.531h4.688v4.688h-4.688V119.531z M89.063,119.531h4.688v4.688h-4.688V119.531z
	 M14.063,133.594H9.375v-4.688h4.688V133.594z M18.75,128.906h4.688v4.688H18.75V128.906z M28.125,128.906h51.563v4.688H28.125
	V128.906z M84.375,128.906h4.688v4.688h-4.688V128.906z M93.75,128.906h4.688v4.688H93.75V128.906z M56.25,98.438
	c0-1.88-0.733-3.646-2.061-4.974c-1.326-1.326-3.096-2.058-4.971-2.058H25.781c-0.626,0-1.214-0.244-1.659-0.689
	c-0.441-0.44-0.685-1.026-0.685-1.654s0.243-1.214,0.685-1.654c0.445-0.446,1.033-0.689,1.659-0.689h37.5
	c1.875,0,3.643-0.731,4.971-2.058c1.329-1.327,2.061-3.094,2.061-4.974v-7.031h-4.688v7.031c0,0.628-0.244,1.214-0.685,1.655
	c-0.445,0.444-1.033,0.688-1.659,0.688h-37.5c-1.875,0-3.643,0.731-4.972,2.058c-1.328,1.326-2.06,3.094-2.06,4.974
	s0.733,3.647,2.06,4.974c1.327,1.326,3.097,2.058,4.972,2.058h23.438c0.626,0,1.214,0.244,1.659,0.689
	c0.44,0.44,0.685,1.026,0.685,1.654v2.344H0v42.188h107.813v-42.188H56.25V98.438z M103.125,138.281H4.688v-32.813h98.438V138.281z
	 M18.75,37.5c0-1.877,0.731-3.645,2.06-4.971c1.327-1.329,3.095-2.061,4.972-2.061h2.344v4.688h-2.344
	c-0.626,0-1.214,0.244-1.657,0.687c-0.443,0.443-0.687,1.031-0.687,1.657v18.75c0,0.626,0.243,1.214,0.687,1.657
	s1.031,0.687,1.657,0.687h2.344v4.688h-2.344c-1.877,0-3.645-0.731-4.972-2.06c-1.328-1.327-2.06-3.094-2.06-4.972V37.5z
	 M53.906,35.156h-2.344v-4.688h2.344c1.877,0,3.645,0.731,4.971,2.061c1.329,1.326,2.061,3.094,2.061,4.971v18.75
	c0,1.878-0.731,3.645-2.061,4.972c-1.326,1.328-3.094,2.06-4.971,2.06h-2.344v-4.688h2.344c0.626,0,1.214-0.243,1.657-0.687
	c0.442-0.443,0.687-1.031,0.687-1.657V37.5c0-0.626-0.244-1.214-0.687-1.657C55.12,35.4,54.532,35.156,53.906,35.156z"/>
<rect x="77.344" y="14.063" style="fill:#F15D5E;" width="4.688" height="4.688"/>
<rect x="86.719" y="14.063" style="fill:#F15D5E;" width="4.688" height="4.688"/>
<rect x="96.094" y="14.063" style="fill:#F15D5E;" width="4.688" height="4.688"/>
<rect x="77.344" y="35.156" style="fill:#F15D5E;" width="11.719" height="4.688"/>
<rect x="89.063" y="53.906" style="fill:#F15D5E;" width="18.75" height="4.688"/>
<rect x="89.063" y="63.281" style="fill:#F15D5E;" width="18.75" height="4.688"/>
<rect x="112.5" y="53.906" style="fill:#F15D5E;" width="14.063" height="4.688"/>
<rect x="77.344" y="44.531" style="fill:#F15D5E;" width="30.469" height="4.688"/>
<rect x="112.5" y="63.281" style="fill:#F15D5E;" width="25.781" height="4.688"/>
<rect x="112.523" y="44.531" style="fill:#F15D5E;" width="14.063" height="4.688"/>
<rect x="77.344" y="72.656" style="fill:#F15D5E;" width="11.719" height="4.688"/>
<rect x="89.063" y="91.406" style="fill:#F15D5E;" width="18.75" height="4.688"/>
<rect x="112.5" y="91.406" style="fill:#F15D5E;" width="14.063" height="4.688"/>
<rect x="77.344" y="82.031" style="fill:#F15D5E;" width="30.469" height="4.688"/>
<rect x="112.5" y="100.781" style="fill:#F15D5E;" width="25.781" height="4.688"/>
<rect x="112.523" y="82.031" style="fill:#F15D5E;" width="14.063" height="4.688"/>
<rect x="28.125" y="44.531" style="fill:#F15D5E;" width="4.688" height="4.688"/>
<rect x="37.5" y="44.531" style="fill:#F15D5E;" width="4.688" height="4.688"/>
<rect x="46.875" y="44.531" style="fill:#F15D5E;" width="4.688" height="4.688"/>
</svg>
