<?xml version="1.0" encoding="utf-8"?>
<!-- Generator: Adobe Illustrator 16.0.0, SVG Export Plug-In . SVG Version: 6.00 Build 0)  -->
<!DOCTYPE svg PUBLIC "-//W3C//DTD SVG 1.1//EN" "http://www.w3.org/Graphics/SVG/1.1/DTD/svg11.dtd">
<svg version="1.1" id="Layer_1" xmlns="http://www.w3.org/2000/svg" xmlns:xlink="http://www.w3.org/1999/xlink" x="0px" y="0px"
	 width="150px" height="150px" viewBox="0 0 150 150" style="enable-background:new 0 0 150 150;" xml:space="preserve">
<path style="fill:#59595A;" d="M137.903,122.177V44.758c0-1.936-0.755-3.76-2.124-5.132c-1.369-1.371-3.194-2.126-5.134-2.126
	H96.774v4.839h33.871c0.648,0,1.253,0.251,1.708,0.706c0.46,0.459,0.711,1.066,0.711,1.713v77.419H93.354l-4.839,4.839H61.485
	l-4.839-4.839H16.936V44.758c0-0.646,0.251-1.254,0.709-1.711c0.457-0.457,1.064-0.708,1.71-0.708h33.871V37.5H19.354
	c-1.938,0-3.762,0.755-5.131,2.126c-1.372,1.37-2.127,3.193-2.127,5.132v77.419H0v7.258c0,3.23,1.258,6.267,3.544,8.553
	c2.284,2.284,5.323,3.545,8.553,3.545h125.807c3.232,0,6.271-1.261,8.552-3.545c2.284-2.283,3.545-5.322,3.545-8.553v-7.258H137.903
	z M145.161,129.435c0,1.938-0.757,3.763-2.129,5.132c-1.367,1.372-3.188,2.127-5.129,2.127H12.097c-1.938,0-3.76-0.758-5.132-2.127
	c-1.371-1.372-2.126-3.193-2.126-5.132v-2.419h49.805l4.839,4.839h31.035l4.839-4.839h49.805V129.435z M24.193,114.919h101.613
	V85.887H24.193V114.919z M29.032,90.726h91.936v19.354H29.032V90.726z M125.807,49.597H96.774v29.032h29.032V49.597z M120.968,73.79
	h-19.355V54.436h19.355V73.79z M24.193,49.597v29.032h29.032V49.597H24.193z M48.387,73.79H29.032V54.436h19.354V73.79z
	 M66.067,49.597h-5.584v29.032h29.033V49.597h-5.589l7.41-19.791c0.396-1.471,0.598-2.951,0.598-4.402
	c0-9.339-7.6-16.936-16.936-16.936c-9.339,0-16.936,7.597-16.936,16.936c0,1.451,0.201,2.932,0.665,4.625L66.067,49.597z
	 M84.678,54.436V73.79H65.322V54.436h2.56l4.854,12.945c0.354,0.943,1.256,1.57,2.265,1.57s1.911-0.627,2.267-1.57l4.847-12.945
	H84.678z M75,13.306c6.67,0,12.097,5.427,12.097,12.098c0,1.027-0.145,2.087-0.358,2.927L75,59.642L63.334,28.551
	c-0.286-1.061-0.431-2.12-0.431-3.147C62.903,18.732,68.33,13.306,75,13.306z"/>
<path style="fill:#F15D5E;" d="M75,32.661c4.002,0,7.258-3.257,7.258-7.258c0-4.002-3.256-7.259-7.258-7.259
	s-7.258,3.257-7.258,7.259C67.742,29.404,70.998,32.661,75,32.661z"/>
<rect x="96.774" y="22.983" style="fill:#F15D5E;" width="4.838" height="4.839"/>
<rect x="106.452" y="22.983" style="fill:#F15D5E;" width="4.838" height="4.839"/>
<rect x="116.129" y="22.983" style="fill:#F15D5E;" width="4.839" height="4.839"/>
<rect x="29.032" y="22.983" style="fill:#F15D5E;" width="4.839" height="4.839"/>
<rect x="38.71" y="22.983" style="fill:#F15D5E;" width="4.838" height="4.839"/>
<rect x="48.387" y="22.983" style="fill:#F15D5E;" width="4.839" height="4.839"/>
<rect x="62.903" y="97.983" style="fill:#F15D5E;" width="4.839" height="4.839"/>
<rect x="72.58" y="97.983" style="fill:#F15D5E;" width="4.84" height="4.839"/>
<rect x="82.258" y="97.983" style="fill:#F15D5E;" width="4.839" height="4.839"/>
<path style="fill:#FFFFFF;" d="M75,22.983c1.336,0,2.42,1.086,2.42,2.42c0,1.333-1.084,2.419-2.42,2.419
	c-1.333,0-2.42-1.086-2.42-2.419C72.58,24.069,73.667,22.983,75,22.983z"/>
</svg>
