<?xml version="1.0" encoding="utf-8"?>
<!-- Generator: Adobe Illustrator 16.0.0, SVG Export Plug-In . SVG Version: 6.00 Build 0)  -->
<!DOCTYPE svg PUBLIC "-//W3C//DTD SVG 1.1//EN" "http://www.w3.org/Graphics/SVG/1.1/DTD/svg11.dtd">
<svg version="1.1" id="Layer_1" xmlns="http://www.w3.org/2000/svg" xmlns:xlink="http://www.w3.org/1999/xlink" x="0px" y="0px"
	 width="150px" height="150px" viewBox="0 0 150 150" enable-background="new 0 0 150 150" xml:space="preserve">
<g id="Layer_2">
</g>
<g id="Layer_1_1_">
	<path fill="#F15D5E" d="M138.281,105.469V63.281H77.344V56.25h44.531v-37.5v-4.687V0h-93.75v14.063v4.687v37.5h44.531v7.031H11.719
		v42.188h16.406v7.031H11.719V150h37.5v-37.5H32.813v-7.031h39.843v7.031H56.25V150h37.5v-37.5H77.344v-7.031h39.844v7.031h-16.404
		V150h37.5v-37.5h-16.406v-7.031H138.281z M32.813,4.688h84.375v9.375H32.813V4.688z M32.813,51.563V18.75h84.375v32.813H32.813z
		 M16.406,117.188h28.125v28.125H16.406V117.188z M60.938,117.188h28.125v28.125H60.938V117.188z M105.469,117.188h28.125v28.125
		h-28.125V117.188z M16.406,67.969h117.188v32.813H16.406V67.969z"/>
	<g>
		<rect x="21.094" y="133.594" fill="#727272" width="9.375" height="4.688"/>
		<rect x="21.094" y="124.219" fill="#727272" width="18.75" height="4.688"/>
		<rect x="65.625" y="133.594" fill="#727272" width="9.375" height="4.688"/>
		<rect x="65.625" y="124.219" fill="#727272" width="18.75" height="4.688"/>
		<rect x="110.156" y="133.594" fill="#727272" width="9.375" height="4.688"/>
		<rect x="110.156" y="124.219" fill="#727272" width="18.75" height="4.688"/>
		<rect x="39.844" y="32.813" fill="#727272" width="70.313" height="4.688"/>
		<rect x="39.844" y="42.188" fill="#727272" width="70.313" height="4.688"/>
		<rect x="39.844" y="23.438" fill="#727272" width="35.156" height="4.688"/>
		<rect x="39.844" y="7.031" fill="#727272" width="4.688" height="4.688"/>
		<rect x="49.219" y="7.031" fill="#727272" width="4.688" height="4.688"/>
		<rect x="58.594" y="7.031" fill="#727272" width="4.688" height="4.688"/>
		<rect x="63.281" y="82.031" fill="#727272" width="4.688" height="4.688"/>
		<rect x="72.656" y="82.031" fill="#727272" width="4.688" height="4.688"/>
		<rect x="82.031" y="82.031" fill="#727272" width="4.688" height="4.688"/>
		<rect x="32.813" y="14.063" fill="#727272" width="84.375" height="4.688"/>
		<path fill="#727272" d="M21.094,72.656v23.438h107.813V72.656H21.094z M124.219,91.407H25.781V77.344h98.438V91.407z"/>
	</g>
</g>
</svg>
