<?xml version="1.0" encoding="utf-8"?>
<!-- Generator: Adobe Illustrator 16.0.0, SVG Export Plug-In . SVG Version: 6.00 Build 0)  -->
<!DOCTYPE svg PUBLIC "-//W3C//DTD SVG 1.1//EN" "http://www.w3.org/Graphics/SVG/1.1/DTD/svg11.dtd">
<svg version="1.1" id="Layer_1" xmlns="http://www.w3.org/2000/svg" xmlns:xlink="http://www.w3.org/1999/xlink" x="0px" y="0px"
	 width="150px" height="150px" viewBox="0 0 150 150" style="enable-background:new 0 0 150 150;" xml:space="preserve">
<polygon style="fill:#F15D5E;" points="121.875,105.469 121.875,112.5 138.281,112.5 138.281,150 100.781,150 100.781,112.5 
	117.188,112.5 117.188,105.469 77.344,105.469 77.344,112.5 93.75,112.5 93.75,150 56.25,150 56.25,112.5 72.656,112.5 
	72.656,105.469 32.813,105.469 32.813,112.5 49.219,112.5 49.219,150 11.719,150 11.719,112.5 28.125,112.5 28.125,105.469 
	11.719,105.469 11.719,63.281 72.656,63.281 72.656,56.25 28.125,56.25 28.125,18.75 28.125,14.063 28.125,0 121.875,0 
	121.875,14.063 121.875,18.75 121.875,56.25 77.344,56.25 77.344,63.281 138.281,63.281 138.281,105.469 "/>
<g>
	<rect x="32.813" y="4.688" style="fill:#FFFFFF;" width="84.375" height="9.375"/>
	<rect x="32.813" y="18.75" style="fill:#FFFFFF;" width="84.375" height="32.813"/>
	<rect x="16.406" y="117.188" style="fill:#FFFFFF;" width="28.125" height="28.125"/>
	<rect x="60.938" y="117.188" style="fill:#FFFFFF;" width="28.125" height="28.125"/>
	<rect x="105.469" y="117.188" style="fill:#FFFFFF;" width="28.125" height="28.125"/>
	<rect x="16.406" y="67.969" style="fill:#FFFFFF;" width="117.188" height="32.813"/>
</g>
<g>
	<rect x="21.094" y="133.594" style="fill:#59595A;" width="9.375" height="4.688"/>
	<rect x="21.094" y="124.219" style="fill:#59595A;" width="18.75" height="4.688"/>
	<rect x="65.625" y="133.594" style="fill:#59595A;" width="9.375" height="4.688"/>
	<rect x="65.625" y="124.219" style="fill:#59595A;" width="18.75" height="4.688"/>
	<rect x="110.156" y="133.594" style="fill:#59595A;" width="9.375" height="4.688"/>
	<rect x="110.156" y="124.219" style="fill:#59595A;" width="18.75" height="4.688"/>
	<rect x="39.844" y="32.813" style="fill:#59595A;" width="70.313" height="4.688"/>
	<rect x="39.844" y="42.188" style="fill:#59595A;" width="70.313" height="4.688"/>
	<rect x="39.844" y="23.438" style="fill:#59595A;" width="35.156" height="4.688"/>
	<rect x="39.844" y="7.031" style="fill:#59595A;" width="4.688" height="4.688"/>
	<rect x="49.219" y="7.031" style="fill:#59595A;" width="4.688" height="4.688"/>
	<rect x="58.594" y="7.031" style="fill:#59595A;" width="4.688" height="4.688"/>
	<rect x="21.094" y="72.656" style="fill:#59595A;" width="107.813" height="23.438"/>
	<rect x="25.781" y="77.344" style="fill:#FFFFFF;" width="98.438" height="14.063"/>
	<rect x="63.281" y="82.031" style="fill:#59595A;" width="4.688" height="4.688"/>
	<rect x="72.656" y="82.031" style="fill:#59595A;" width="4.688" height="4.688"/>
	<rect x="82.031" y="82.031" style="fill:#59595A;" width="4.688" height="4.688"/>
	<rect x="32.813" y="14.063" style="fill:#59595A;" width="84.375" height="4.688"/>
</g>
</svg>
