<?xml version="1.0" encoding="utf-8"?>
<!-- Generator: Adobe Illustrator 16.0.0, SVG Export Plug-In . SVG Version: 6.00 Build 0)  -->
<!DOCTYPE svg PUBLIC "-//W3C//DTD SVG 1.1//EN" "http://www.w3.org/Graphics/SVG/1.1/DTD/svg11.dtd">
<svg version="1.1" id="Layer_1" xmlns="http://www.w3.org/2000/svg" xmlns:xlink="http://www.w3.org/1999/xlink" x="0px" y="0px"
	 width="150px" height="150px" viewBox="0 0 150 150" style="enable-background:new 0 0 150 150;" xml:space="preserve">
<path style="fill:#59595A;" d="M74.945,0.112c7.756,0,14.063,6.308,14.063,14.063c0,6.954-5.079,12.731-11.719,13.852v16.617h-4.688
	V28.026c-6.64-1.122-11.719-6.897-11.719-13.852C60.883,6.42,67.19,0.112,74.945,0.112z M74.945,4.8
	c-5.17,0-9.375,4.205-9.375,9.375c0,5.171,4.205,9.375,9.375,9.375c5.17,0,9.375-4.204,9.375-9.375
	C84.32,9.005,80.115,4.8,74.945,4.8z M135.883,32.925c7.756,0,14.063,6.308,14.063,14.063c0,7.756-6.307,14.063-14.063,14.063
	c-3.032,0-5.836-0.975-8.135-2.613l-15.989,15.989l-3.314-3.314l15.989-15.989c-1.638-2.299-2.613-5.102-2.613-8.135
	C121.82,39.232,128.127,32.925,135.883,32.925z M135.883,37.612c-5.17,0-9.375,4.205-9.375,9.375s4.205,9.375,9.375,9.375
	s9.375-4.205,9.375-9.375S141.053,37.612,135.883,37.612z M89.748,68.203c13.632,4.542,27.385,18.586,27.385,39.722
	c0,23.262-18.926,42.188-42.188,42.188s-42.188-18.926-42.188-42.188c0-21.136,13.753-35.18,27.384-39.722l1.484,4.443
	c-4.064,1.354-8.128,3.696-11.747,6.896L66.81,96.473c1.692-1.204,3.661-2.039,5.792-2.399V77.456h4.688v16.617
	c2.131,0.358,4.1,1.195,5.792,2.399l16.933-16.931c-3.616-3.202-7.68-5.541-11.746-6.896L89.748,68.203z M65.57,107.925
	c0,5.171,4.205,9.375,9.375,9.375c5.17,0,9.375-4.204,9.375-9.375c0-5.17-4.205-9.375-9.375-9.375
	C69.775,98.55,65.57,102.755,65.57,107.925z M112.445,107.925c0-10.427-3.743-18.896-9.124-25.062L86.393,99.789
	c1.641,2.3,2.615,5.104,2.615,8.136c0,7.755-6.307,14.063-14.063,14.063c-7.755,0-14.063-6.308-14.063-14.063
	c0-3.032,0.975-5.836,2.613-8.136L46.567,82.861c-5.379,6.168-9.122,14.637-9.122,25.063c0,20.677,16.823,37.5,37.5,37.5
	S112.445,128.602,112.445,107.925z M38.132,74.425L22.143,58.437c-2.299,1.639-5.102,2.613-8.135,2.613
	c-7.755,0-14.063-6.307-14.063-14.063c0-7.755,6.307-14.063,14.063-14.063S28.07,39.232,28.07,46.987
	c0,3.033-0.975,5.836-2.613,8.136l15.989,15.988L38.132,74.425z M14.008,56.362c5.17,0,9.375-4.205,9.375-9.375
	s-4.205-9.375-9.375-9.375s-9.375,4.205-9.375,9.375S8.837,56.362,14.008,56.362z"/>
<rect x="11.5" y="44.5" style="fill:#F15D5E;" width="5" height="5"/>
<rect x="72.445" y="11.708" style="fill:#F15D5E;" width="5" height="5"/>
<rect x="133.403" y="44.541" style="fill:#F15D5E;" width="5" height="5"/>
<rect x="72.602" y="68.081" style="fill:#F15D5E;" width="4.688" height="4.688"/>
<rect x="72.602" y="58.706" style="fill:#F15D5E;" width="4.688" height="4.688"/>
<rect x="72.602" y="49.331" style="fill:#F15D5E;" width="4.688" height="4.688"/>
<rect x="72.445" y="105.406" style="fill:#F15D5E;" width="5" height="5"/>
<path style="fill:#F15D5E;" d="M74.945,131.362c-12.923,0-23.438-10.515-23.438-23.438H46.82c0,15.509,12.616,28.125,28.125,28.125
	s28.125-12.616,28.125-28.125h-4.688C98.383,120.848,87.868,131.362,74.945,131.362z"/>
</svg>
