<?xml version="1.0" encoding="utf-8"?>
<!-- Generator: Adobe Illustrator 16.0.0, SVG Export Plug-In . SVG Version: 6.00 Build 0)  -->
<!DOCTYPE svg PUBLIC "-//W3C//DTD SVG 1.1//EN" "http://www.w3.org/Graphics/SVG/1.1/DTD/svg11.dtd">
<svg version="1.1" id="Layer_1" xmlns="http://www.w3.org/2000/svg" xmlns:xlink="http://www.w3.org/1999/xlink" x="0px" y="0px"
	 width="150px" height="150px" viewBox="0 0 150 150" enable-background="new 0 0 150 150" xml:space="preserve">
<path fill="#828282" d="M131.251,93.752c-3.601,0-6.788,1.668-8.938,4.232l-17.477-9.401c1.893-4.146,2.979-8.733,2.979-13.582
	c0-4.847-1.086-9.436-2.979-13.58l17.476-9.4c2.153,2.562,5.342,4.23,8.941,4.23c6.462,0,11.719-5.258,11.719-11.72
	c0-6.461-5.257-11.718-11.719-11.718s-11.72,5.257-11.72,11.718c0,1.177,0.228,2.291,0.552,3.364l-17.494,9.41
	c-5.443-8.456-14.65-14.243-25.244-14.998V23.201c5.342-1.09,9.375-5.822,9.375-11.482C86.719,5.257,81.462,0,75,0
	S63.281,5.257,63.281,11.719c0,5.66,4.033,10.393,9.375,11.482v19.106c-10.596,0.755-19.801,6.542-25.245,14.998l-17.494-9.413
	c0.324-1.07,0.552-2.185,0.552-3.361c0-6.461-5.258-11.718-11.72-11.718S7.03,38.07,7.03,44.531c0,6.462,5.257,11.72,11.719,11.72
	c3.603,0,6.788-1.669,8.939-4.233l17.478,9.403c-1.896,4.145-2.979,8.733-2.979,13.58c0,4.845,1.084,9.435,2.979,13.581
	l-17.489,9.389c-2.152-2.558-5.332-4.219-8.928-4.219c-6.462,0-11.719,5.257-11.719,11.719c0,6.461,5.257,11.719,11.719,11.719
	s11.72-5.258,11.72-11.719c0-1.184-0.23-2.302-0.556-3.38l17.498-9.396c5.442,8.459,14.651,14.248,25.245,15v19.105
	c-5.342,1.088-9.375,5.822-9.375,11.48C63.281,144.743,68.538,150,75,150s11.719-5.257,11.719-11.719
	c0-5.658-4.033-10.396-9.375-11.48v-19.105c10.596-0.752,19.801-6.541,25.245-14.995l17.494,9.409
	c-0.324,1.068-0.552,2.186-0.552,3.361c0,6.461,5.258,11.719,11.72,11.719s11.72-5.258,11.72-11.719
	C142.971,99.009,137.713,93.752,131.251,93.752z M131.251,37.501c3.876,0,7.031,3.154,7.031,7.03c0,3.877-3.155,7.032-7.031,7.032
	c-3.877,0-7.03-3.155-7.03-7.032C124.221,40.655,127.374,37.501,131.251,37.501z M18.749,51.563c-3.876,0-7.031-3.155-7.031-7.032
	c0-3.876,3.155-7.03,7.031-7.03s7.031,3.154,7.031,7.03C25.78,48.408,22.625,51.563,18.749,51.563z M18.749,112.502
	c-3.876,0-7.031-3.154-7.031-7.031s3.155-7.031,7.031-7.031s7.031,3.154,7.031,7.031S22.625,112.502,18.749,112.502z M75,82.032
	c-17.447,0-28.125-4.552-28.125-7.031c0-2.479,10.678-7.031,28.125-7.031c17.447,0,28.125,4.552,28.125,7.031
	C103.125,77.48,92.447,82.032,75,82.032z M75.152,103.12c-0.033,0-0.063,0.004-0.096,0.004l-0.139-0.003
	c-0.023,0-0.047-0.001-0.07-0.001c-1.908-0.277-5.079-5.616-6.603-16.642c2.228,0.157,4.491,0.242,6.755,0.242
	c2.265,0,4.526-0.085,6.755-0.242C80.229,97.492,77.066,102.827,75.152,103.12z M74.843,46.883c0.04,0,0.079-0.005,0.12-0.005h0.094
	c0.034,0,0.067,0.005,0.1,0.005c1.907,0.286,5.075,5.622,6.599,16.639c-2.229-0.152-4.49-0.239-6.755-0.239
	c-2.264,0-4.527,0.087-6.755,0.241C69.769,52.522,72.926,47.183,74.843,46.883z M102.262,68.202
	c-3.895-2.034-9.486-3.45-15.721-4.224c-0.557-4.426-1.791-11.288-4.332-16.133C92.061,50.466,99.785,58.295,102.262,68.202z
	 M67.969,11.719c0-3.877,3.155-7.031,7.031-7.031s7.031,3.154,7.031,7.031c0,3.877-3.155,7.032-7.031,7.032
	S67.969,15.596,67.969,11.719z M67.807,47.844c-2.555,4.847-3.792,11.712-4.348,16.137c-6.234,0.773-11.824,2.189-15.718,4.224
	C50.217,58.287,57.949,50.457,67.807,47.844z M47.739,81.798c3.893,2.035,9.485,3.452,15.72,4.224
	c0.558,4.426,1.791,11.289,4.332,16.133C57.937,99.536,50.215,91.71,47.739,81.798z M82.031,138.283
	c0,3.877-3.155,7.031-7.031,7.031s-7.031-3.154-7.031-7.031c0-3.876,3.155-7.031,7.031-7.031S82.031,134.407,82.031,138.283z
	 M82.189,102.161c2.559-4.847,3.793-11.716,4.349-16.14c6.235-0.771,11.829-2.188,15.721-4.225
	C99.785,91.717,92.051,99.548,82.189,102.161z M131.251,112.502c-3.877,0-7.03-3.154-7.03-7.031s3.153-7.031,7.03-7.031
	c3.876,0,7.031,3.154,7.031,7.031S135.127,112.502,131.251,112.502z M21.093,67.97h-4.688v-4.688h4.688V67.97z M16.405,72.657h4.688
	v4.688h-4.688V72.657z M16.405,82.032h4.688v4.688h-4.688V82.032z M128.902,82.035h4.687v4.688h-4.687V82.035z M133.589,77.348
	h-4.687V72.66h4.687V77.348z M133.589,67.97l-4.687,0.002l-0.002-4.687l4.688-0.003L133.589,67.97z M39.844,35.156h-4.688v-4.688
	h4.688V35.156z M49.219,28.126H44.53v-4.688h4.688L49.219,28.126L49.219,28.126z M58.594,21.094h-4.688v-4.688h4.688V21.094z
	 M114.846,35.156h-4.688v-4.688h4.688V35.156z M105.471,28.126h-4.688v-4.688h4.688V28.126z M96.094,21.094h-4.688v-4.688h4.688
	V21.094z M35.155,112.502h4.688v4.688h-4.688V112.502z M44.53,119.533h4.688v4.688H44.53V119.533z M53.905,126.564h4.688v4.688
	h-4.688V126.564z M110.156,112.502h4.688v4.688h-4.688V112.502z M100.781,119.533h4.688v4.688h-4.688V119.533z M91.406,126.564
	h4.688v4.688h-4.688V126.564z"/>
<rect x="63.281" y="72.657" fill="#F15D5E" width="4.688" height="4.688"/>
<rect x="72.656" y="72.657" fill="#F15D5E" width="4.688" height="4.688"/>
<rect x="82.031" y="72.657" fill="#F15D5E" width="4.688" height="4.688"/>
<rect x="72.656" y="9.375" fill="#F15D5E" width="4.688" height="4.688"/>
<rect x="72.656" y="135.939" fill="#F15D5E" width="4.688" height="4.688"/>
<rect x="16.405" y="42.188" fill="#F15D5E" width="4.688" height="4.688"/>
<rect x="128.906" y="42.188" fill="#F15D5E" width="4.688" height="4.688"/>
<rect x="16.405" y="103.127" fill="#F15D5E" width="4.688" height="4.688"/>
<rect x="128.906" y="103.127" fill="#F15D5E" width="4.688" height="4.688"/>
</svg>
