<?xml version="1.0" encoding="utf-8"?>
<!-- Generator: Adobe Illustrator 16.0.0, SVG Export Plug-In . SVG Version: 6.00 Build 0)  -->
<!DOCTYPE svg PUBLIC "-//W3C//DTD SVG 1.1//EN" "http://www.w3.org/Graphics/SVG/1.1/DTD/svg11.dtd">
<svg version="1.1" id="Layer_1" xmlns="http://www.w3.org/2000/svg" xmlns:xlink="http://www.w3.org/1999/xlink" x="0px" y="0px"
	 width="150px" height="150px" viewBox="0 0 150 150" enable-background="new 0 0 150 150" xml:space="preserve">
<path fill="#828282" d="M136.225,25.498c-1.328-1.327-3.095-2.06-4.975-2.06h-23.438v4.688h23.438c0.628,0,1.214,0.244,1.654,0.685
	c0.445,0.445,0.688,1.033,0.688,1.659v77.344H16.406V30.469c0-0.626,0.244-1.214,0.687-1.657c0.443-0.443,1.031-0.687,1.657-0.687
	h23.438v-4.688H18.75c-1.877,0-3.645,0.731-4.971,2.06c-1.329,1.327-2.06,3.094-2.06,4.971v77.345v4.688v11.719
	c0,1.881,0.733,3.647,2.06,4.975c1.327,1.326,3.096,2.058,4.971,2.058h39.485l-1.674,11.72h-2.655c-1.875,0-3.642,0.73-4.971,2.057
	c-1.329,1.328-2.06,3.095-2.06,4.975h4.688c0-0.628,0.244-1.214,0.685-1.654c0.445-0.445,1.033-0.688,1.659-0.688h1.985h38.217
	h1.984c0.627,0,1.215,0.243,1.657,0.687s0.687,1.031,0.687,1.657h4.688c0-1.877-0.733-3.646-2.062-4.971
	c-1.326-1.327-3.092-2.062-4.971-2.062h-2.654l-1.674-11.719h39.484c1.877,0,3.645-0.732,4.971-2.061
	c1.327-1.326,2.062-3.094,2.062-4.971V112.5v-4.688V30.469C138.281,28.594,137.55,26.827,136.225,25.498z M88.704,142.969H61.296
	l1.673-11.719h24.061L88.704,142.969z M133.594,124.219c0,0.627-0.244,1.215-0.687,1.657c-0.443,0.442-1.031,0.687-1.657,0.687
	H91.096H58.905H18.75c-0.626,0-1.214-0.242-1.659-0.688c-0.441-0.44-0.685-1.026-0.685-1.653V112.5h117.188V124.219L133.594,124.219
	z M82.031,121.875H67.969v-4.688h14.063L82.031,121.875L82.031,121.875z"/>
<polygon fill="#F15D5E" points="21.094,32.813 21.094,103.125 128.906,103.125 128.906,32.813 103.125,32.813 103.125,0 79.688,0 
	79.688,32.813 70.313,32.813 70.313,22.814 58.594,2.306 46.875,22.814 46.875,32.813 "/>
<rect x="25.781" y="37.5" fill="#FFFFFF" width="21.094" height="60.938"/>
<polygon fill="#FFFFFF" points="56.25,35.979 56.25,98.438 51.563,98.438 51.563,30.12 "/>
<polygon fill="#FFFFFF" points="65.625,98.438 60.938,98.438 60.938,35.979 65.625,30.12 "/>
<rect x="103.125" y="37.5" fill="#FFFFFF" width="21.094" height="60.938"/>
<polygon fill="#FFFFFF" points="98.438,4.688 98.438,98.438 84.375,98.438 84.375,93.75 89.063,93.75 89.063,89.063 84.375,89.063 
	84.375,84.375 89.063,84.375 89.063,79.688 84.375,79.688 84.375,75 89.063,75 89.063,70.313 84.375,70.313 84.375,65.625 
	89.063,65.625 89.063,60.938 84.375,60.938 84.375,56.25 89.063,56.25 89.063,51.563 84.375,51.563 84.375,46.875 89.063,46.875 
	89.063,42.188 84.375,42.188 84.375,37.5 89.063,37.5 89.063,32.813 84.375,32.813 84.375,28.125 89.063,28.125 89.063,23.438 
	84.375,23.438 84.375,4.688 "/>
<rect x="70.313" y="37.5" fill="#FFFFFF" width="9.375" height="60.938"/>
<polygon fill="#FFFFFF" points="65.142,23.217 58.594,31.404 52.045,23.217 58.594,11.756 "/>
<rect x="89.063" y="11.719" fill="#F15D5E" width="4.688" height="4.688"/>
</svg>
