<?xml version="1.0" encoding="utf-8"?>
<!-- Generator: Adobe Illustrator 16.0.0, SVG Export Plug-In . SVG Version: 6.00 Build 0)  -->
<!DOCTYPE svg PUBLIC "-//W3C//DTD SVG 1.1//EN" "http://www.w3.org/Graphics/SVG/1.1/DTD/svg11.dtd">
<svg version="1.1" id="Layer_1" xmlns="http://www.w3.org/2000/svg" xmlns:xlink="http://www.w3.org/1999/xlink" x="0px" y="0px"
	 width="150px" height="150px" viewBox="0 0 150 150" enable-background="new 0 0 150 150" xml:space="preserve">
<g id="Layer_2">
</g>
<g id="Layer_1_1_">
	<path fill="#727272" d="M136.225,25.498c-1.328-1.327-3.095-2.06-4.975-2.06h-23.438v4.688h23.438c0.628,0,1.214,0.244,1.654,0.685
		c0.445,0.445,0.688,1.033,0.688,1.659v77.344H16.406V30.469c0-0.626,0.244-1.214,0.687-1.657c0.443-0.443,1.031-0.687,1.657-0.687
		h23.438v-4.688H18.75c-1.877,0-3.645,0.731-4.971,2.06c-1.329,1.327-2.06,3.094-2.06,4.971v77.345v4.688v11.72
		c0,1.881,0.733,3.646,2.06,4.975c1.327,1.326,3.096,2.059,4.971,2.059h39.485l-1.674,11.721h-2.655
		c-1.875,0-3.642,0.729-4.971,2.058c-1.329,1.327-2.06,3.095-2.06,4.975h4.688c0-0.628,0.244-1.214,0.685-1.653
		c0.445-0.444,1.033-0.688,1.659-0.688h1.985h38.217h1.982c0.629,0,1.217,0.243,1.657,0.688c0.44,0.443,0.688,1.03,0.688,1.656
		h4.688c0-1.877-0.732-3.646-2.063-4.971c-1.326-1.327-3.092-2.063-4.972-2.063h-2.653l-1.674-11.72h39.483
		c1.877,0,3.646-0.731,4.971-2.062c1.327-1.325,2.063-3.094,2.063-4.971V112.5v-4.688V30.469
		C138.281,28.594,137.55,26.827,136.225,25.498z M88.704,142.969H61.296l1.673-11.719h24.061L88.704,142.969z M133.594,124.219
		c0,0.627-0.244,1.215-0.687,1.657c-0.443,0.442-1.031,0.687-1.657,0.687H91.096H58.905H18.75c-0.626,0-1.214-0.242-1.659-0.688
		c-0.441-0.439-0.685-1.025-0.685-1.652V112.5h117.188V124.219L133.594,124.219z M82.031,121.875H67.969v-4.688h14.063
		L82.031,121.875L82.031,121.875z"/>
	<path fill="#F15D5E" d="M103.125,32.813V0H79.688v32.813h-9.375v-9.999L58.594,2.306L46.875,22.814v9.999H21.094v70.312h107.813
		V32.813H103.125z M46.875,98.438H25.781V37.5h21.094V98.438z M56.25,98.438h-4.687V30.12l4.687,5.859V98.438z M52.045,23.217
		l6.549-11.461l6.548,11.461l-6.548,8.187L52.045,23.217z M65.625,98.438h-4.687V35.979l4.687-5.859V98.438z M79.688,98.438h-9.375
		V37.5h9.375V98.438z M98.438,98.438H84.375V93.75h4.688v-4.688h-4.688v-4.688h4.688v-4.688h-4.688V75h4.688v-4.687h-4.688v-4.688
		h4.688v-4.687h-4.688V56.25h4.688v-4.687h-4.688v-4.688h4.688v-4.687h-4.688V37.5h4.688v-4.687h-4.688v-4.688h4.688v-4.687h-4.688
		V4.688h14.063V98.438z M124.219,98.438h-21.094V37.5h21.094V98.438z"/>
	<rect x="89.063" y="11.719" fill="#F15D5E" width="4.688" height="4.688"/>
</g>
</svg>
