<?xml version="1.0" encoding="utf-8"?>
<!-- Generator: Adobe Illustrator 21.0.0, SVG Export Plug-In . SVG Version: 6.00 Build 0)  -->
<svg version="1.1" id="Layer_1" xmlns="http://www.w3.org/2000/svg" xmlns:xlink="http://www.w3.org/1999/xlink" x="0px" y="0px"
	 viewBox="0 0 150 150" style="enable-background:new 0 0 150 150;" xml:space="preserve">
<style type="text/css">
	.st0{fill:#727272;}
	.st1{fill:#F15D5E;}
	.st2{fill:#59595A;}
</style>
<g id="Layer_2">
</g>
<g id="Layer_1_1_">
	<path class="st0" d="M0,120.7v4.7v16.4h126.6v-23.4H0V120.7z M121.9,137.1H4.7v-11.7V123h4.7v4.7h4.7V123h4.7v4.7h4.7V123h4.7v4.7
		h4.7V123h4.7v4.7h4.7V123h4.7v4.7h4.7V123h4.7v4.7h4.7V123h4.7v4.7h4.7V123H75v4.7h4.7V123h4.7v4.7h4.7V123h4.7v4.7h4.7V123h4.7
		v4.7h4.7V123h14.1L121.9,137.1L121.9,137.1L121.9,137.1L121.9,137.1z M112.5,132.4v-4.7h4.7v4.7H112.5z M149.8,23.6l-7-14.1
		c-0.8-1.6-3.4-1.6-4.2,0l-7,14.1c-0.2,0.3-0.2,0.7-0.2,1v110.2c0,1.9,0.7,3.6,2.1,5c1.3,1.3,3.1,2.1,5,2.1h4.7c1.9,0,3.6-0.7,5-2.1
		c1.3-1.3,2.1-3.1,2.1-5V24.6C150,24.2,149.9,23.9,149.8,23.6z M140.6,15.8l3.2,6.5h-6.5L140.6,15.8z M145.3,27v100.8h-9.4V27H145.3
		z M144.6,136.4c-0.4,0.4-1,0.7-1.7,0.7h-4.7c-0.6,0-1.2-0.2-1.7-0.7c-0.4-0.4-0.7-1-0.7-1.7v-2.3h9.4v2.3
		C145.3,135.4,145.1,136,144.6,136.4z M0,8.2v103.1h126.6V23.6L111.1,8.2H0z M112.5,16.2l6.1,6.1h-6.1V16.2z M4.7,106.6V12.9h103.1
		V27h14.1v79.7L4.7,106.6L4.7,106.6z M105.5,31.6H14.1v65.6h93.8V76.2h4.7v-4.7h-4.7V52.7h4.7V48h-4.7V36.3h4.7v-4.7h-4.7
		L105.5,31.6L105.5,31.6z M103.1,92.6H18.8V36.3h84.4V92.6z"/>
	<path class="st1" d="M25.8,43.4v14.1h14.1V43.4H25.8z M35.2,52.7h-4.7V48h4.7V52.7z"/>
	<path class="st1" d="M44.5,43.4v14.1h14.1V43.4H44.5z M53.9,52.7h-4.7V48h4.7V52.7z"/>
	<path class="st1" d="M63.3,43.4v14.1h14.1V43.4H63.3z M72.7,52.7H68V48h4.7V52.7z"/>
	<path class="st1" d="M82,43.4v14.1h14.1V43.4H82z M91.4,52.7h-4.7V48h4.7V52.7z"/>
	<path class="st1" d="M25.8,62.1v23.4h51.6V62.1H25.8z M72.7,80.9H30.5V66.8h42.2V80.9z"/>
	<rect x="25.8" y="22.3" class="st1" width="14.1" height="4.7"/>
	<rect x="44.5" y="22.3" class="st1" width="14.1" height="4.7"/>
	<rect x="63.3" y="22.3" class="st1" width="14.1" height="4.7"/>
	<rect x="82" y="22.3" class="st1" width="14.1" height="4.7"/>
	<rect x="82" y="62.1" class="st1" width="14.1" height="4.7"/>
	<rect x="82" y="71.5" class="st1" width="14.1" height="4.7"/>
	<rect x="82" y="80.9" class="st1" width="7" height="4.7"/>
	<rect x="39.8" y="71.5" class="st2" width="4.7" height="4.7"/>
	<rect x="49.2" y="71.5" class="st2" width="4.7" height="4.7"/>
	<rect x="58.6" y="71.5" class="st2" width="4.7" height="4.7"/>
</g>
</svg>
