<?xml version="1.0" encoding="utf-8"?>
<!-- Generator: Adobe Illustrator 16.0.0, SVG Export Plug-In . SVG Version: 6.00 Build 0)  -->
<!DOCTYPE svg PUBLIC "-//W3C//DTD SVG 1.1//EN" "http://www.w3.org/Graphics/SVG/1.1/DTD/svg11.dtd">
<svg version="1.1" id="Layer_1" xmlns="http://www.w3.org/2000/svg" xmlns:xlink="http://www.w3.org/1999/xlink" x="0px" y="0px"
	 width="150px" height="150px" viewBox="0 0 150 150" style="enable-background:new 0 0 150 150;" xml:space="preserve">
<path style="fill:#59595A;" d="M0,120.703v4.688v16.406h126.563v-23.438H0V120.703z M121.875,137.109H4.688v-11.719v-2.344h4.688
	v4.688h4.688v-4.688h4.688v4.688h4.688v-4.688h4.688v4.688h4.688v-4.688H37.5v4.688h4.688v-4.688h4.688v4.688h4.688v-4.688h4.688
	v4.688h4.688v-4.688h4.688v4.688h4.688v-4.688H75v4.688h4.688v-4.688h4.688v4.688h4.688v-4.688h4.688v4.688h4.688v-4.688h4.688
	v4.688h4.688v-4.688h14.063V137.109z M112.5,132.422v-4.688h4.688v4.688H112.5z M149.754,23.562L142.723,9.5
	c-0.797-1.589-3.396-1.589-4.192,0l-7.031,14.063c-0.165,0.323-0.249,0.684-0.249,1.047v110.156c0,1.877,0.733,3.645,2.061,4.971
	c1.326,1.327,3.094,2.061,4.971,2.061h4.688c1.877,0,3.645-0.733,4.971-2.061c1.327-1.326,2.061-3.094,2.061-4.971V24.609
	C150,24.246,149.916,23.885,149.754,23.562z M140.625,15.787l3.24,6.479h-6.48L140.625,15.787z M145.313,26.953v100.781h-9.375
	V26.953H145.313z M144.627,136.424c-0.445,0.441-1.033,0.686-1.658,0.686h-4.688c-0.625,0-1.213-0.244-1.658-0.686
	c-0.441-0.445-0.686-1.033-0.686-1.658v-2.344h9.375v2.344C145.313,135.391,145.068,135.979,144.627,136.424z M0,8.203v103.125
	h126.563V23.639L111.127,8.203H0z M112.5,16.205l6.061,6.061H112.5V16.205z M4.688,106.641v-93.75h103.125v14.063h14.063v79.688
	H4.688z M105.469,31.641H14.063v65.625h93.75V76.172h4.688v-4.688h-4.688v-18.75h4.688v-4.688h-4.688V36.328h4.688v-4.688h-4.688
	H105.469z M103.125,92.578H18.75v-56.25h84.375V92.578z"/>
<rect x="25.781" y="43.359" style="fill:#F15D5E;" width="14.063" height="14.063"/>
<rect x="30.469" y="48.047" style="fill:#59595A;" width="4.688" height="4.688"/>
<rect x="44.531" y="43.359" style="fill:#F15D5E;" width="14.063" height="14.063"/>
<rect x="49.219" y="48.047" style="fill:#59595A;" width="4.688" height="4.688"/>
<rect x="63.281" y="43.359" style="fill:#F15D5E;" width="14.063" height="14.063"/>
<rect x="67.969" y="48.047" style="fill:#59595A;" width="4.688" height="4.688"/>
<rect x="82.031" y="43.359" style="fill:#F15D5E;" width="14.063" height="14.063"/>
<rect x="86.719" y="48.047" style="fill:#59595A;" width="4.688" height="4.688"/>
<rect x="25.781" y="62.109" style="fill:#F15D5E;" width="51.563" height="23.438"/>
<rect x="30.469" y="66.797" style="fill:#FFFFFF;" width="42.188" height="14.063"/>
<rect x="25.781" y="22.266" style="fill:#F15D5E;" width="14.063" height="4.688"/>
<rect x="44.531" y="22.266" style="fill:#F15D5E;" width="14.063" height="4.688"/>
<rect x="63.281" y="22.266" style="fill:#F15D5E;" width="14.063" height="4.688"/>
<rect x="82.031" y="22.266" style="fill:#F15D5E;" width="14.063" height="4.688"/>
<rect x="82.031" y="62.109" style="fill:#F15D5E;" width="14.063" height="4.688"/>
<rect x="82.031" y="71.484" style="fill:#F15D5E;" width="14.063" height="4.688"/>
<rect x="82.031" y="80.859" style="fill:#F15D5E;" width="7.031" height="4.688"/>
<rect x="39.844" y="71.484" style="fill:#59595A;" width="4.688" height="4.688"/>
<rect x="49.219" y="71.484" style="fill:#59595A;" width="4.688" height="4.688"/>
<rect x="58.594" y="71.484" style="fill:#59595A;" width="4.688" height="4.688"/>
</svg>
